<?xml version="1.0" encoding="utf-8"?>
<!-- Generator: Adobe Illustrator 18.1.1, SVG Export Plug-In . SVG Version: 6.00 Build 0)  -->
<!DOCTYPE svg PUBLIC "-//W3C//DTD SVG 1.1//EN" "http://www.w3.org/Graphics/SVG/1.1/DTD/svg11.dtd">
<svg version="1.1" id="Layer_1" xmlns="http://www.w3.org/2000/svg" xmlns:xlink="http://www.w3.org/1999/xlink" x="0px" y="0px"
	 width="1000px" height="1000px" viewBox="0 0 1000 1000" enable-background="new 0 0 1000 1000" xml:space="preserve">
<g enable-background="new    ">
	<path fill="#58595B" d="M965.3,423.9L531.8,856.9c-7.4,7.4-16.2,11.1-26.3,11.1c-10.1,0-18.9-3.7-26.3-11.1L45.7,423.9
		c-7.4-7.4-11.1-16.2-11.1-26.6c0-10.3,3.7-19.2,11.1-26.6l97-96.4c7.4-7.4,16.2-11.1,26.3-11.1s18.9,3.7,26.3,11.1l310.2,310.2
		l310.2-310.2c7.4-7.4,16.2-11.1,26.3-11.1s18.9,3.7,26.3,11.1l97,96.4c7.4,7.4,11.1,16.3,11.1,26.6
		C976.4,407.7,972.7,416.5,965.3,423.9z"/>
</g>
</svg>
