<?xml version="1.0" encoding="utf-8"?>
<!-- Generator: Adobe Illustrator 18.1.1, SVG Export Plug-In . SVG Version: 6.00 Build 0)  -->
<!DOCTYPE svg PUBLIC "-//W3C//DTD SVG 1.1//EN" "http://www.w3.org/Graphics/SVG/1.1/DTD/svg11.dtd">
<svg version="1.1" id="Layer_1" xmlns="http://www.w3.org/2000/svg" xmlns:xlink="http://www.w3.org/1999/xlink" x="0px" y="0px"
	 width="1000px" height="1000px" viewBox="0 0 1000 1000" enable-background="new 0 0 1000 1000" xml:space="preserve">
<g enable-background="new    ">
	<path fill="#58595B" d="M908.9,671.2v158c0,13.2-4.6,24.4-13.8,33.6c-9.2,9.2-20.4,13.8-33.6,13.8h-727c-13.2,0-24.4-4.6-33.6-13.8
		c-9.2-9.2-13.8-20.4-13.8-33.6v-158c0-13.2,4.6-24.4,13.8-33.6c9.2-9.2,20.4-13.8,33.6-13.8h229.7l66.7,67.2
		c19.1,18.4,41.5,27.7,67.2,27.7s48.1-9.2,67.2-27.7l67.2-67.2h229.2c13.2,0,24.4,4.6,33.6,13.8
		C904.3,646.9,908.9,658.1,908.9,671.2z M748.4,390.2c5.6,13.5,3.3,25-6.9,34.6L520.2,646.1c-5.9,6.3-13.3,9.4-22.2,9.4
		s-16.3-3.1-22.2-9.4L254.5,424.8c-10.2-9.5-12.5-21.1-6.9-34.6c5.6-12.8,15.3-19.3,29.1-19.3h126.4V149.7c0-8.6,3.1-16,9.4-22.2
		c6.3-6.3,13.7-9.4,22.2-9.4h126.4c8.6,0,16,3.1,22.2,9.4c6.3,6.3,9.4,13.7,9.4,22.2V371h126.4C733.1,371,742.8,377.4,748.4,390.2z
		 M709.9,804.1c6.3-6.3,9.4-13.7,9.4-22.2c0-8.6-3.1-16-9.4-22.2c-6.3-6.3-13.7-9.4-22.2-9.4c-8.6,0-16,3.1-22.2,9.4
		c-6.3,6.3-9.4,13.7-9.4,22.2c0,8.6,3.1,16,9.4,22.2c6.2,6.3,13.7,9.4,22.2,9.4C696.2,813.5,703.6,810.3,709.9,804.1z M836.3,804.1
		c6.2-6.3,9.4-13.7,9.4-22.2c0-8.6-3.1-16-9.4-22.2c-6.3-6.3-13.7-9.4-22.2-9.4c-8.6,0-16,3.1-22.2,9.4c-6.3,6.3-9.4,13.7-9.4,22.2
		c0,8.6,3.1,16,9.4,22.2c6.2,6.3,13.7,9.4,22.2,9.4C822.6,813.5,830.1,810.3,836.3,804.1z"/>
</g>
</svg>
