<?xml version="1.0" encoding="utf-8"?>
<!-- Generator: Adobe Illustrator 18.1.1, SVG Export Plug-In . SVG Version: 6.00 Build 0)  -->
<!DOCTYPE svg PUBLIC "-//W3C//DTD SVG 1.1//EN" "http://www.w3.org/Graphics/SVG/1.1/DTD/svg11.dtd">
<svg version="1.1" id="Layer_1" xmlns="http://www.w3.org/2000/svg" xmlns:xlink="http://www.w3.org/1999/xlink" x="0px" y="0px"
	 width="1000px" height="1000px" viewBox="0 0 1000 1000" enable-background="new 0 0 1000 1000" xml:space="preserve">
<g enable-background="new    ">
	<path fill="#414042" d="M753.8,628.4v90.3c0,37.7-13.4,70-40.2,96.7c-26.8,26.8-59,40.2-96.7,40.2H221.5c-37.7,0-70-13.4-96.7-40.2
		c-26.8-26.8-40.2-59-40.2-96.7V323.2c0-37.7,13.4-69.9,40.2-96.7c26.8-26.8,59-40.2,96.7-40.2h395.5c20,0,38.5,4,55.6,11.9
		c4.8,2.2,7.6,5.9,8.6,10.9c1,5.4-0.5,10-4.3,13.8l-23.3,23.3c-4.4,4.4-9.5,5.7-15.2,3.8c-7.3-1.9-14.4-2.9-21.4-2.9H221.5
		c-20.9,0-38.8,7.4-53.7,22.3c-14.9,14.9-22.3,32.8-22.3,53.7v395.5c0,20.9,7.4,38.8,22.3,53.7c14.9,14.9,32.8,22.3,53.7,22.3h395.5
		c20.9,0,38.8-7.4,53.7-22.3c14.9-14.9,22.3-32.8,22.3-53.7v-59.9c0-4.1,1.4-7.6,4.3-10.5l30.4-30.4c4.8-4.8,10.3-5.9,16.6-3.3
		C750.7,617.1,753.8,621.7,753.8,628.4z M708.2,277.6l136.9,136.9L525.7,733.9H388.8V597L708.2,277.6z M506.7,688.2l55.1-55.1
		l-72.2-72.2L434.4,616v26.6h45.6v45.6H506.7z M715.8,346c-5.1-5.1-10.3-4.9-15.7,0.5L533.8,512.9c-5.4,5.4-5.5,10.6-0.5,15.7
		c5.1,5.1,10.3,4.9,15.7-0.5l166.4-166.4C720.7,356.3,720.9,351.1,715.8,346z M919.3,340.3L875.5,384L738.6,247.1l43.7-43.7
		c8.9-8.9,19.6-13.3,32.3-13.3c12.7,0,23.4,4.4,32.3,13.3l72.2,72.2c8.9,8.9,13.3,19.7,13.3,32.3
		C932.6,320.7,928.1,331.4,919.3,340.3z"/>
</g>
</svg>
