<?xml version="1.0" encoding="utf-8"?>
<!-- Generator: Adobe Illustrator 18.1.1, SVG Export Plug-In . SVG Version: 6.00 Build 0)  -->
<!DOCTYPE svg PUBLIC "-//W3C//DTD SVG 1.1//EN" "http://www.w3.org/Graphics/SVG/1.1/DTD/svg11.dtd">
<svg version="1.1" id="Layer_1" xmlns="http://www.w3.org/2000/svg" xmlns:xlink="http://www.w3.org/1999/xlink" x="0px" y="0px"
	 width="1000px" height="1000px" viewBox="0 0 1000 1000" enable-background="new 0 0 1000 1000" xml:space="preserve">
<g enable-background="new    ">
	<path fill="#FFFFFF" d="M798.9,616.6v132.5c0,40.6-14.4,75.3-43.2,104.1c-28.8,28.8-63.5,43.2-104.1,43.2H225.7
		c-40.6,0-75.3-14.4-104.1-43.2c-28.8-28.8-43.2-63.5-43.2-104.1V323.4c0-40.6,14.4-75.3,43.2-104.1c28.8-28.8,63.5-43.2,104.1-43.2
		h130.5c4.4,0,8.3,1.6,11.5,4.9c3.2,3.2,4.9,7.1,4.9,11.5c0,9.2-4.4,14.7-13.3,16.4c-26.3,8.9-49,19.1-68.1,30.7
		c-3.4,1.4-6.1,2-8.2,2h-57.3c-22.5,0-41.8,8-57.8,24.1c-16,16-24.1,35.3-24.1,57.8v425.8c0,22.5,8,41.8,24.1,57.8
		c16,16,35.3,24.1,57.8,24.1h425.8c22.5,0,41.8-8,57.8-24.1c16-16,24.1-35.3,24.1-57.8V639.7c0-6.5,3.1-11.4,9.2-14.8
		c9.5-4.4,18.8-10.7,27.6-18.9c5.5-5.5,11.4-6.8,17.9-4.1C795.3,604.9,798.9,609.8,798.9,616.6z M920.1,362.8L723.6,559.3
		c-6.1,6.5-13.8,9.7-23,9.7c-4.1,0-8.4-0.8-12.8-2.6c-13.3-5.8-20-15.9-20-30.2V438H586c-110.2,0-184.9,22.3-224.1,67
		c-40.6,46.7-53.2,127.4-37.9,242.1c1,7.9-2.4,13.6-10.2,17.4c-2.7,0.7-4.8,1-6.1,1c-5.5,0-9.9-2.2-13.3-6.7
		c-3.4-4.8-7-10.1-10.7-15.9c-3.8-5.8-10.5-17.5-20.2-35.1c-9.7-17.6-18.2-34.5-25.3-50.9s-13.7-35.8-19.7-58.3
		c-6-22.5-9-43.3-9-62.4c0-16.7,0.6-32.2,1.8-46.6c1.2-14.3,3.6-29.7,7.2-46.1c3.6-16.4,8.4-31.4,14.3-45c6-13.6,14-27.5,24.1-41.7
		c10.1-14.2,21.7-26.8,35.1-37.9c13.3-11.1,29.4-21.6,48.4-31.5c18.9-9.9,40.2-18.2,63.7-24.8c23.5-6.7,50.7-11.9,81.6-15.6
		c30.9-3.8,64.4-5.6,100.6-5.6h81.9v-98.3c0-14.3,6.7-24.4,20-30.2c4.4-1.7,8.7-2.6,12.8-2.6c8.9,0,16.5,3.2,23,9.7l196.5,196.5
		c6.5,6.5,9.7,14.2,9.7,23C929.9,348.7,926.6,356.3,920.1,362.8z"/>
</g>
</svg>
