<?xml version="1.0" encoding="utf-8"?>
<!-- Generator: Adobe Illustrator 18.1.1, SVG Export Plug-In . SVG Version: 6.00 Build 0)  -->
<!DOCTYPE svg PUBLIC "-//W3C//DTD SVG 1.1//EN" "http://www.w3.org/Graphics/SVG/1.1/DTD/svg11.dtd">
<svg version="1.1" id="Layer_1" xmlns="http://www.w3.org/2000/svg" xmlns:xlink="http://www.w3.org/1999/xlink" x="0px" y="0px"
	 width="1000px" height="1000px" viewBox="0 0 1000 1000" enable-background="new 0 0 1000 1000" xml:space="preserve">
<g enable-background="new    ">
	<path fill="#FFFFFF" d="M436.2,564l281.2,281.2c-36.4,37.1-78.9,65.9-127.5,86.5c-48.6,20.6-99.8,30.9-153.8,30.9
		c-71.8,0-138-17.7-198.6-53.1c-60.6-35.4-108.6-83.4-144-144C58.3,705,40.6,638.8,40.6,567.1c0-71.8,17.7-138,53.1-198.6
		c35.4-60.6,83.4-108.6,144-144c60.6-35.4,126.8-53.1,198.6-53.1V564z M897.7,501.1H502.1V105.5c71.8,0,138,17.7,198.6,53.1
		c60.6,35.4,108.6,83.4,144,144C880,363.2,897.7,429.4,897.7,501.1z M532.5,567.1h398.2c0,53.9-10.3,105.2-30.9,153.8
		c-20.6,48.6-49.4,91.1-86.5,127.5L532.5,567.1z"/>
</g>
</svg>
