<?xml version="1.0" encoding="utf-8"?>
<!-- Generator: Adobe Illustrator 18.1.1, SVG Export Plug-In . SVG Version: 6.00 Build 0)  -->
<!DOCTYPE svg PUBLIC "-//W3C//DTD SVG 1.1//EN" "http://www.w3.org/Graphics/SVG/1.1/DTD/svg11.dtd">
<svg version="1.1" id="Layer_1" xmlns="http://www.w3.org/2000/svg" xmlns:xlink="http://www.w3.org/1999/xlink" x="0px" y="0px"
	 width="1000px" height="1000px" viewBox="0 0 1000 1000" enable-background="new 0 0 1000 1000" xml:space="preserve">
<g>
	<circle fill="#F1F2F2" cx="496.2" cy="503.4" r="407.4"/>
	<g>
		<g>
			<defs>
				<circle id="SVGID_1_" cx="496.2" cy="503.4" r="407.4"/>
			</defs>
			<clipPath id="SVGID_2_">
				<use xlink:href="#SVGID_1_"  overflow="visible"/>
			</clipPath>
			<g clip-path="url(#SVGID_2_)">
				<g enable-background="new    ">
					<path fill="#A7A9AC" d="M828.4,809.2c0,36.8-11.2,65.8-33.5,87.1c-22.4,21.3-52.1,31.9-89.1,31.9H304.1
						c-37.1,0-66.8-10.6-89.1-31.9c-22.4-21.3-33.5-50.3-33.5-87.1c0-16.2,0.5-32.1,1.6-47.6c1.1-15.5,3.2-32.2,6.4-50.1
						c3.2-17.9,7.3-34.5,12.2-49.9c4.9-15.3,11.5-30.2,19.8-44.8c8.3-14.5,17.8-27,28.5-37.2c10.7-10.3,23.8-18.5,39.3-24.6
						c15.5-6.1,32.5-9.2,51.2-9.2c2.8,0,9.2,3.3,19.3,9.9c10.1,6.6,21.5,13.9,34.2,22.1c12.7,8.1,29.3,15.5,49.6,22.1
						c20.4,6.6,40.8,9.9,61.3,9.9c20.5,0,41-3.3,61.3-9.9c20.4-6.6,36.9-13.9,49.6-22.1c12.7-8.1,24.1-15.5,34.2-22.1
						c10.1-6.6,16.5-9.9,19.3-9.9c18.7,0,35.8,3.1,51.2,9.2c15.5,6.1,28.6,14.3,39.3,24.6c10.7,10.3,20.2,22.7,28.5,37.2
						c8.3,14.6,14.9,29.5,19.8,44.8c4.9,15.3,9,31.9,12.2,49.9c3.2,17.9,5.4,34.6,6.4,50.1C827.9,777.1,828.4,792.9,828.4,809.2z
						 M629.7,274.1c34.5,34.5,51.7,76.1,51.7,124.8s-17.2,90.3-51.7,124.8c-34.5,34.5-76.1,51.7-124.8,51.7
						c-48.7,0-90.3-17.2-124.8-51.7c-34.5-34.5-51.7-76.1-51.7-124.8s17.2-90.3,51.7-124.8c34.5-34.5,76.1-51.7,124.8-51.7
						C553.6,222.4,595.2,239.6,629.7,274.1z"/>
				</g>
			</g>
		</g>
	</g>
</g>
</svg>
