<?xml version="1.0" encoding="utf-8"?>
<!-- Generator: Adobe Illustrator 18.1.1, SVG Export Plug-In . SVG Version: 6.00 Build 0)  -->
<!DOCTYPE svg PUBLIC "-//W3C//DTD SVG 1.1//EN" "http://www.w3.org/Graphics/SVG/1.1/DTD/svg11.dtd">
<svg version="1.1" id="Layer_1" xmlns="http://www.w3.org/2000/svg" xmlns:xlink="http://www.w3.org/1999/xlink" x="0px" y="0px"
	 width="1000px" height="1000px" viewBox="0 0 1000 1000" enable-background="new 0 0 1000 1000" xml:space="preserve">
<g>
	<g enable-background="new    ">
		<path fill="#414042" d="M707.9,608.6c0,8.6-3.2,15.9-9.7,21.9l-47,43.8c-6.5,6-14.3,9-23.5,9c-9.2,0-17.1-3-23.5-9l-101.6-94.7
			L401,674.3c-6.5,6-14.3,9-23.5,9c-9.2,0-17.1-3-23.5-9l-47-43.8c-6.5-6-9.7-13.3-9.7-21.9c0-8.6,3.2-15.9,9.7-21.9L408.6,492
			L307,397.4c-6.5-6-9.7-13.3-9.7-21.9c0-8.6,3.2-15.9,9.7-21.9l47-43.8c6.4-6,14.3-9,23.5-9c9.2,0,17,3,23.5,9l101.6,94.7
			l101.6-94.7c6.4-6,14.3-9,23.5-9c9.2,0,17,3,23.5,9l47,43.8c6.4,6,9.7,13.3,9.7,21.9c0,8.6-3.2,15.9-9.7,21.9L596.6,492
			l101.6,94.7C704.7,592.7,707.9,600,707.9,608.6z"/>
	</g>
</g>
</svg>
